<?xml version="1.0" encoding="UTF-8"?>
<svg id="Lag_1" data-name="Lag 1" xmlns="http://www.w3.org/2000/svg" viewBox="0 0 586.06 561.37">
  <defs>
    <style>
      .cls-1, .cls-2, .cls-3, .cls-4, .cls-5, .cls-6, .cls-7, .cls-8, .cls-9, .cls-10, .cls-11 {
        stroke-miterlimit: 10;
      }

      .cls-1, .cls-5 {
        stroke: #fff79a;
      }

      .cls-1, .cls-5, .cls-12 {
        fill: #fff79a;
      }

      .cls-1, .cls-7 {
        stroke-width: 2px;
      }

      .cls-13 {
        fill: #005352;
        font-family: ArialNarrow, 'Arial Narrow';
        font-size: 95px;
        opacity: .87;
      }

      .cls-2, .cls-8, .cls-9, .cls-11 {
        fill: none;
      }

      .cls-2, .cls-8, .cls-11 {
        stroke: #000;
      }

      .cls-2, .cls-10 {
        stroke-width: .75px;
      }

      .cls-3 {
        stroke: #b8b397;
      }

      .cls-3, .cls-7, .cls-14 {
        fill: #b8b397;
      }

      .cls-4 {
        fill: #fff;
      }

      .cls-4, .cls-7 {
        stroke: #fff;
      }

      .cls-6 {
        stroke: #548bc9;
      }

      .cls-6, .cls-15 {
        fill: #548bc9;
      }

      .cls-7 {
        opacity: .6;
      }

      .cls-9 {
        stroke: #ffd40e;
      }

      .cls-10 {
        stroke: #ffc08e;
      }

      .cls-10, .cls-16 {
        fill: #ffc08e;
      }

      .cls-15, .cls-14, .cls-12, .cls-16 {
        stroke-width: 0px;
      }

      .cls-11 {
        stroke-width: .5px;
      }
    </style>
  </defs>
  <text class="cls-13" transform="translate(43.88 409.13) rotate(45.3) scale(.62 1)"><tspan x="0" y="0">K</tspan></text>
  <text class="cls-13" transform="translate(68.61 433.98) rotate(41.13) scale(.62 1)"><tspan x="0" y="0">E</tspan></text>
  <text class="cls-13" transform="translate(95.45 457.34) rotate(36.28) scale(.62 1)"><tspan x="0" y="0">N</tspan></text>
  <text class="cls-13" transform="translate(126.92 480.22) rotate(30.5) scale(.62 1)"><tspan x="0" y="0">D</tspan></text>
  <text class="cls-13" transform="translate(159.88 499.01) rotate(25.99) scale(.62 1)"><tspan x="0" y="0"> </tspan></text>
  <text class="cls-13" transform="translate(175.04 506.75) rotate(21.05) scale(.62 1)"><tspan x="0" y="0">D</tspan></text>
  <text class="cls-13" transform="translate(211.25 519.97) rotate(15.69) scale(.62 1)"><tspan x="0" y="0">I</tspan></text>
  <text class="cls-13" transform="translate(228.1 525.05) rotate(10) scale(.62 1)"><tspan x="0" y="0">N</tspan></text>
  <text class="cls-13" transform="translate(266.59 531.06) rotate(4.12) scale(.62 1)"><tspan x="0" y="0"> </tspan></text>
  <text class="cls-13" transform="translate(284.03 532.57) rotate(-1.48) scale(.62 1)"><tspan x="0" y="0">B</tspan></text>
  <text class="cls-13" transform="translate(321.87 531.18) rotate(-9.41) scale(.62 1)"><tspan x="0" y="0">Y</tspan></text>
  <text class="cls-13" transform="translate(350.25 526.26) rotate(-13.39) scale(.62 1)"><tspan x="0" y="0">,</tspan></text>
  <text class="cls-13" transform="translate(365.46 522.58) rotate(-16.5) scale(.62 1)"><tspan x="0" y="0"> </tspan></text>
  <text class="cls-13" transform="translate(378.99 518.91) rotate(-20.96) scale(.62 1)"><tspan x="0" y="0">A</tspan></text>
  <text class="cls-13" transform="translate(413.23 505.47) rotate(-27.44) scale(.62 1)"><tspan x="0" y="0">A</tspan></text>
  <text class="cls-13" transform="translate(445.42 488.54) rotate(-33.36) scale(.62 1)"><tspan x="0" y="0">R</tspan></text>
  <text class="cls-13" transform="translate(477.53 467.14) rotate(-38.72) scale(.62 1)"><tspan x="0" y="0">H</tspan></text>
  <text class="cls-13" transform="translate(507.16 443.16) rotate(-43.43) scale(.62 1)"><tspan x="0" y="0">U</tspan></text>
  <text class="cls-13" transform="translate(534.37 417.17) rotate(-47.52) scale(.62 1)"><tspan x="0" y="0">S</tspan></text>
  <path class="cls-1" d="m511.83,212.2c-.07-.53-.17-1.02-.26-1.52.02-.5.03-1,0-1.53-.02-.35-.07-.67-.15-.98,0-2.62.11-5.16-.2-7.82-.03-.29-.11-.57-.19-.83.37-1.28.27-2.71-.31-3.91,0-.03,0-.06,0-.09,0-.02,0-.04,0-.07.03-.56.02-1.11-.05-1.66-.03-.47-.13-.89-.26-1.29,0-.1,0-.2-.01-.29.06-.39.09-.82.05-1.28-.84-9.68-2.36-19.12-4.86-28.51-.13-.59-.28-1.18-.47-1.77,0,0,0,0,0,0-.02-.14-.03-.29-.05-.43,0-.4-.02-.8-.1-1.23-.07-.39-.14-.77-.2-1.16-.07-.41-.2-.79-.36-1.13-.07-.99-.39-1.82-.88-2.49-.03-.17-.07-.35-.12-.53.05.2-1.12-4.48-1.36-3.39.57-2.57-.77-5.52-3.61-6.16-8.11-1.85-16.36-2.48-24.41-4.12-.61-.12-1.22-.12-1.81-.02-.89-.24-1.78-.47-2.67-.72-.69-.2-1.38-.2-2.04-.09-.1-.04-.2-.07-.3-.11-.93-.37-1.78-.46-2.54-.33-.14-.02-.28-.04-.43-.05-9.72-.68-19.37-2.74-29.06-3.79-1.07-.12-1.96.05-2.68.42-14.9.37-29.8.73-44.71,1.07-.37,0-.71.05-1.04.12-.09-.01-.17-.03-.26-.05-4.13-.51-8.42.38-12.58.45-4.38.08-8.75,0-13.12.2-.28.01-.53.05-.79.09-4.11-.82-9.59.68-13.18.27-1.69-.19-2.98.44-3.83,1.46-1.71.47-3.36,1.08-5.03,1.82-5.53.26-11.24,2.98-16.31,4.63-.23.07-.44.16-.64.26-.39.02-.78.08-1.17.21-9.8,3.24-19.62,6.39-29.47,9.46-.47.15-.88.33-1.26.54-4.73,1.45-9.47,2.91-14.2,4.36-3.92,1.2-10.16,1.91-13.7,4.68-8.83,2.33-17.55,4.95-26.18,7.91-.11.04-.21.08-.32.13-.75-.02-1.53.11-2.33.44-9.43,3.87-19.82,6.32-29.61,9.34-.63.2-1.17.47-1.63.8-1.48.29-2.94.64-4.38,1.07-1.12.33-2.18.74-3.27,1.14-.63.24-2.68.58-2.29,1.02-.27-.01-.55-.01-.85.02-.05,0-.09.01-.14.02-.94.11-1.74.41-2.43.81-.01-.05-.03-.09-.04-.14-2.37,1.35-5.52,1.58-8.19,2.12-3.69.75-4.4,4.18-3.13,6.77-.05.26-.09.53-.1.8-.25,6.37-.63,12.73-1.12,19.08-.03.42-.02.82.04,1.19-.17.48-.28,1-.3,1.58-.19,4.81-.37,9.61-.56,14.42-.05.22-.12.43-.15.67-1.09,8.45-1.01,17.12-1.11,25.69-.23.51-.39,1.06-.42,1.67-.21,3.63-.42,7.25-.63,10.88-.03.6.02,1.13.16,1.62-.18.5-.28,1.05-.29,1.67-.03,2.11-.06,4.23-.1,6.34-.27.6-.45,1.29-.49,2.09-.31,6.26-.49,12.53-.55,18.8-.17.49-.3,1.02-.34,1.62-.41,7.24-.82,14.49-1.23,21.73-.04.68.05,1.28.22,1.81-.27.56-.44,1.2-.48,1.92-.97,16.13-1.78,32.26-2.6,48.4-.12,2.39,1.22,3.89,2.98,4.5.32.34.71.65,1.18.92.39.77,1.01,1.48,1.9,2.06,9.73,6.34,19.46,12.69,29.19,19.03.04.03.09.05.13.08.33.29.72.55,1.19.78,5.19,2.52,10.5,4.78,15.92,6.8.41.39.92.74,1.58,1.01,8.17,3.38,16.51,6.11,24.99,8.33.89.62,1.97,1.01,3.13,1.15,3.63.42,7.39,1.76,11.01,2.42,2.92.53,5.75,1.46,8.69,1.77.2.02.39.03.58.03.21.07.43.13.67.17,2.82.41,5.61.57,8.43.88,3.08.34,5.95.97,9.08.93.47,0,.9-.07,1.3-.16,12.56,1.8,25.8-.1,38.41-.9.64-.04,1.22-.17,1.73-.38,4.58-.51,9.1-1.48,13.62-2.43.59-.12,1.1-.32,1.54-.56,9.05-.49,17.22-4.95,25.93-6.81.88-.19,1.58-.53,2.13-.97.3-.06.61-.14.93-.26,15.68-5.94,31.26-13.46,44.74-23.39.72-.19,1.44-.53,2.12-1.06,1.35-1.07,2.71-2.31,4.14-3.42.46-.16.93-.4,1.4-.75.59-.43,1.17-.86,1.76-1.29.66-.48,1.16-1.03,1.52-1.61,3.44-2.57,6.82-5.2,10.09-7.97.19-.16.34-.35.49-.53.39-.22.76-.48,1.07-.84,2.23-2.6,5.07-4.5,7.61-6.79,2.5-2.25,4.67-4.81,6.83-7.36.45-.54.81-1.13,1.06-1.76.27-.21.54-.46.8-.75,4.36-4.95,8.5-10.07,12.43-15.36.91-.56,1.69-1.4,2.19-2.56.24-.56.48-1.11.72-1.67,1.35-2.41,3.93-4.96,5.3-6.99,1.12-1.67,2.12-3.37,3.05-5.11.37-.31.71-.69,1.01-1.15,2.49-3.77,4.39-8.09,6.47-12.09,2.06-3.97,4.15-7.89,5.55-12.15.05-.16.09-.32.13-.47.29-.38.55-.81.75-1.31,1.77-4.42,3.69-8.82,5.26-13.31.66-1.9,1.46-3.76,2.12-5.66.4-1.16.59-2.36.83-3.55.33-.47.59-1.02.73-1.68.09-.41.18-.82.27-1.23.05-.22.08-.43.1-.65.33-.6.55-1.29.62-2.08.25-2.93,1.62-6.21,2.34-9.07.81-3.25,1.12-6.63,2.01-9.87.19-.68.23-1.31.16-1.9.18-.37.32-.77.41-1.23,1.93-9.54,2.67-19.39,2.71-29.13.11-.32.19-.66.23-1.03.12-.97.08-1.75-.11-2.51.42-.91.56-1.99.29-3.21.4,1.79.03-2.01.02-2.04Zm-298.66,95.56c-.09-.47-.18-.94-.27-1.4,0-.03-.01-.07-.02-.1.26.4.53.8.83,1.18.04.05.09.1.13.15-.22.06-.45.12-.67.18Zm31.21,36.47c-.18-.28-.39-.54-.61-.79.28-.04.57-.09.85-.14-.1.3-.18.61-.24.93Zm137.28-18.58c.13.7.28,1.39.44,2.08-.31-.43-.63-.87-.95-1.29-.16-.2-.33-.38-.49-.57.33-.09.66-.18.99-.26,0,.01,0,.03,0,.04Zm91.43-165.9c-.11-.45-.25-.88-.39-1.31.13.04.27.06.39.11.11.04.21.08.31.12-.11.36-.21.72-.31,1.09Z"/>
  <path class="cls-12" d="m243.83,155.66c7.66,0,7.67-11.91,0-11.91s-7.67,11.91,0,11.91h0Z"/>
  <path class="cls-12" d="m251.05,153.78c7.08-4.95,14.82-8.79,21.95-13.67,3.48-2.38,6.84-4.93,10.05-7.67,3.51-2.99,7.29-4.94,11.39-7,6.85-3.45.82-13.72-6.01-10.28-3.97,2-7.9,3.87-11.35,6.72s-6.52,5.51-10.09,7.95c-7.12,4.88-14.86,8.72-21.95,13.67-6.24,4.36-.29,14.68,6.01,10.28h0Z"/>
  <path class="cls-16" d="m497.24,135.65c.04-.4-.07-.81-.35-1.15-.03-.55-.33-1.08-.88-1.29,0-.52-.12-1.05-.4-1.52-.15-.24-.28-.49-.41-.74-.02-.04-.04-.07-.05-.11-.08-.44-.35-.93-.5-1.34-.14-.41-.37-.79-.64-1.12-.17-1.11-.61-2.17-1.32-3.02-.08-.79-.32-1.61-.78-2.44-.58-1.04-.95-1.97-1.27-3.12-.27-.96-.75-1.79-1.38-2.46-.48-1.32-.96-2.59-1.77-3.91-.57-.93-1.71-3.48-3.04-5.04-.24-.68-.56-1.35-.94-2.01-.77-1.31-1.48-2.64-2.17-3.99-.19-.47-.4-.93-.65-1.38l-.37-.65c-.43-.75-.95-1.43-1.53-2.06-.76-1.36-1.61-2.67-2.45-3.95-.28-.46-.58-.9-.91-1.31-.17-.22-.35-.42-.53-.63-.13-.51-.32-1.01-.61-1.46-.24-.38-.53-.76-.86-1.12.01-.77-.47-1.54-1.45-1.54-.2,0-.38.04-.54.1-.24-.1-.49-.18-.74-.21-.03,0-.06,0-.09-.01-.6-.22-1.28-.35-2.03-.37-.14-.04-.28-.08-.42-.13-1.1-.41-2.05-.7-3.2-.81-7.4-1.36-14.77-2.83-22.15-4.31-.23-.05-.46-.08-.69-.1-.22-.08-.44-.14-.68-.18-2.44-.44-4.92-.8-7.34-1.33-1.71-.38-3.28-.86-4.93-.89-.93-.29-1.89-.5-2.92-.63-1.65-.75-3.29-.93-5.11-1.1-.07-.02-.19-.05-.37-.11-.36-.11-.72-.21-1.08-.31-1.24-.35-2.49-.53-3.78-.67-.57-.06-1.13,0-1.67.16-.57-.04-1.13.03-1.7.2-.84.21-1.53.55-2.21,1.06-.99.27-1.99.5-2.97.81-.77.25-1.5.65-2.12,1.17-.13.01-.26,0-.4.02-.92-.02-1.89.22-2.88.79-.52.11-1.2.3-1.46.38-1.27.38-2.2,1.11-3.4,1.51-3.18,1.06-6.36,2.1-9.54,3.14-.51.17-.97.39-1.38.64-1.35.1-2.45.57-3.28,1.3-.4,0-.79.03-1.2.12-.23.05-.46.1-.69.15-.85.18-1.61.59-2.24,1.14-.82.26-1.63.51-2.45.77-1.57.49-3.13.99-4.7,1.48-.56.18-1.08.43-1.56.74-.45.02-.9.1-1.34.24-1.21.41-2.43.78-3.63,1.23-.87.33-1.6.64-2.36,1.13-.15.12-.3.24-.46.36-.04,0-.08.01-.12.02-.47.06-.94.13-1.41.19-.51.1-1.01.22-1.51.38-.93.3-1.67.66-2.32,1.12-.1.02-.2.02-.31.04-.64.12-1.24.37-1.84.63-1.95.68-3.91,1.37-5.91,1.84-.51.12-1,.34-1.45.61-.12.03-.24.05-.36.08-.74.16-1.41.49-1.99.94-1.77.53-3.53,1.1-5.27,1.74-.38.14-.75.31-1.1.51-1.17.31-2.35.63-3.52.94-.75.2-1.39.51-1.93.88-.46.13-1.26.38-.88.33-1.22.14-2.35.47-3.3,1.07-1.55.29-3.15.64-4.42,1.42-.18.11-.36.23-.53.36-.5.14-1.01.27-1.54.37-.67.13-1.27.4-1.81.78-3.44,1.16-5.56,2.04-8.52,2.68-.76.16-1.42.49-1.98.92-.51.13-1.01.26-1.53.37-.68.14-1.28.41-1.8.76-.59.17-1.12.42-1.59.74-.37.06-.76.14-1.16.28-.87.3-1.73.59-2.6.89-1.15.14-2.29.66-3.18,1.35-2.79,1.11-5.47,1.74-8.16,3.43-2.9,1.82-5.76,3.72-8.63,5.59-.48.31-.88.64-1.23.99-1.46.86-2.94,1.69-4.42,2.5-.96.53-1.66,1.18-2.15,1.91-2.32,1.51-4.95,2.78-7.24,4.15-.22.13-.42.27-.61.41-.09.04-.18.06-.27.1-.32.14-.65.29-.97.43-.97.43-1.69,1.04-2.18,1.74-3.66,2.03-7.49,3.85-10.83,6.33-.29.22-.55.45-.8.69-2.04.94-4.04,1.97-5.99,3.17-.68.42-1.23.9-1.66,1.42-1.27.61-2.63,1.12-3.76,1.69-.59.3-1.08.65-1.49,1.03-.17.04-.35.12-.53.25-2.42,1.75-5.27,2.5-7.75,4.05-.28.17-.46.39-.57.63-.09.03-.19.07-.28.13-.66.38-1.29.8-1.91,1.22-.28-.04-.59.01-.91.17-6.49,3.22-12.86,6.75-19.32,10.09-.33.17-.54.41-.65.67-.2.02-.41.1-.62.23-2.11,1.33-4.22,2.61-6.5,3.62-.06.03-.12.06-.17.1-.37-.16-.81-.16-1.26.1-1.48.86-3.28,1.2-4.82,2-1.66.86-3.58,1.27-5.13,2.33-.11.07-.2.16-.28.25-.09.02-.19.04-.29.08-1.39.53-2.86.73-4.26,1.26-1.41.53-2.8.92-4.28,1.23-1.89.4-1.09,3.31.8,2.92,1.47-.31,2.87-.7,4.28-1.23,1.4-.53,2.87-.73,4.26-1.26.24-.09.43-.22.58-.38.23-.01.47-.08.72-.25.26-.18.55-.32.83-.47.3.19.69.25,1.14.09.97-.34,1.83-.88,2.7-1.36.35.1.74.09,1.15-.09,2.75-1.24,5.32-2.42,8.28-3.01.4-.08.67-.27.85-.51,1.29-.1,2.4-.72,3.56-1.15.21.05.43.06.67,0,5.29-1.2,10.48-3.58,15.68-5.18.19-.06.34-.14.48-.24.25.01.51-.03.78-.18.41-.22.82-.43,1.23-.64.19.04.4.04.62-.01.93-.22,1.83-.47,2.71-.83,1.48-.61,2.94-.74,4.46-1.2,1.53-.47,3.87-.81,5.02-2.03.39-.08.79-.16,1.18-.24.21-.04.41-.09.6-.16.07-.02.74-.25.47-.22.51-.06.97-.3,1.25-.69.89,0,1.83-.2,2.79-.68.41-.21.82-.41,1.23-.61.69-.06,1.4-.24,2.13-.58.19-.09.38-.17.57-.25.52-.02,1.06-.1,1.62-.26,8.7-2.57,17.27-5.65,25.85-8.6.47-.04.96-.14,1.48-.32,3.38-1.16,6.75-2.51,10.19-3.45,1.5-.41,2.88-1.03,4.26-1.63.95-.02,1.96-.33,2.98-1.01.09-.1.18-.18.28-.26.42-.13.85-.25,1.28-.35.75-.16,1.4-.43,1.94-.76.48-.02.97-.09,1.49-.24,6.75-1.89,13.3-4.22,20.01-6.23.73-.22,1.35-.54,1.88-.92.31-.05.63-.12.93-.24,1.02-.39,2.03-.79,3.05-1.18.16-.06,1.17-.45,1.71-.73.04,0,.07,0,.1,0,3.34-.41,6.2-1.19,9.28-2.54.48-.21.89-.51,1.25-.86.26-.02.53-.05.8-.11,2.13-.4,4.36-1.1,6.48-1.94.35.04.72.05,1.1.02,5.77-.46,11.53-.14,17.32-.6.48-.04.93-.14,1.36-.26.47.11.96.15,1.47.09,2.93-.36,5.79.37,8.71.11,1.01-.09,2-.34,2.99-.56.31.04.63.08.97.08.86,0,1.63-.16,2.3-.43.21.02.42.03.63.07.6.11,1.2.13,1.79.09.72.08,1.46.02,2.17-.24.6-.22,2.96-.04,4.07-.11.97-.07,1.94-.13,2.91-.2.55.15,1.14.21,1.79.15.8-.06,1.55-.14,2.31-.3.84-.07,1.7-.03,2.54.02.77.04,1.45-.04,2.07-.23.67.06,1.35.06,2.05-.04.88-.13,3.06.13,4.35.17,1.84.06,3.69.11,5.53.17.94.03,1.84-.21,2.64-.62,6.29,0,12.47-.2,18.7-.9.75.22,1.58.29,2.48.15.06.01.13.03.2.04.57.1,1.19.21,1.77.23.1,0,.19,0,.29,0,.36-.03.75-.08,1.12-.13.03,0,.06.03.1.03,7.55,1.97,15.3,2.85,22.94,4.46.64.13,1.24.17,1.81.13.24.1.49.2.76.28,3.41,1.01,6.89,1.36,10.4,1.89,3.44.52,6.81,2.05,10.28,2.04.58,0,1.11-.09,1.6-.22.48.26.98.4,1.52.47.7.45,1.58.54,2.37.32.14.11.31.2.5.24.06.01.12.04.19.06.02,0,.03.02.05.03,0,.76.48,1.52,1.45,1.52,1.31,0,1.73-1.4,1.26-2.29Z"/>
  <path class="cls-16" d="m409.01,116.23c-6.19.19-12.38.38-18.58.57v11.91c1.08-.11,2.16-.22,3.23-.32l-1.58-11.69c-7.08,1.57-15.34.76-22.59,1.01-7.94.28-15.87.56-23.81.83s-7.68,12.17,0,11.91c8.6-.3,17.19-.6,25.79-.9,7.76-.27,16.16.32,23.77-1.37,6.43-1.42,5.17-12.37-1.58-11.69-1.08.11-2.16.22-3.23.32-7.46.75-7.8,12.14,0,11.91,6.19-.19,12.38-.38,18.58-.57,7.64-.23,7.68-12.14,0-11.91h0Z"/>
  <path class="cls-16" d="m416.18,128.15l8.06-.9-3-11.09-1.12.55c-5.27,2.6-2.78,11.4,3,11.09s12.34-1.54,18.09-.75v-11.48l-1.94.5c-6.84,1.75-4.83,11.14,1.58,11.69,1.86.16,3.67.38,5.51.69.53-3.9,1.06-7.8,1.58-11.69l-1.82.15c-7.62.65-7.7,11.36,0,11.91,2.39.17,4.79.34,7.18.51l-1.58-11.69-1.45.5c-6.21,2.13-5.37,11.6,1.58,11.69,1.83.02,3.35.21,5.12.65.53-3.9,1.06-7.8,1.58-11.69l-1.59-.02c-6.5-.08-8.37,10.72-1.58,11.69,3.97.57,7.95,1.14,11.92,1.71.53-3.9,1.06-7.8,1.58-11.69l-1.61.19c-7.55.88-7.75,11.24,0,11.91,4.81.41,9.26,2.18,14.16,1.89,7.61-.45,7.67-12.36,0-11.91-4.77.28-9.41-1.48-14.16-1.89v11.91l1.61-.19c2.98-.35,5.42-2,5.85-5.16.35-2.62-1.33-6.11-4.26-6.53-3.97-.57-7.95-1.14-11.92-1.71l-1.58,11.69,1.59.02c6.66.08,8.16-10.05,1.58-11.69-2.74-.68-5.46-1.04-8.29-1.08l1.58,11.69,1.45-.5c6.43-2.21,5.18-11.21-1.58-11.69-2.39-.17-4.79-.34-7.18-.51v11.91l1.82-.15c6.17-.52,8.68-10.49,1.58-11.69-2.88-.49-5.76-.87-8.67-1.12.53,3.9,1.06,7.8,1.58,11.69l1.94-.5c5.3-1.36,6.03-10.64,0-11.48-7.02-.97-14.21-.05-21.25.32l3,11.09,1.12-.55c5.11-2.52,2.87-11.75-3-11.09l-8.06.9c-7.53.84-7.62,12.76,0,11.91h0Z"/>
  <path class="cls-16" d="m494.29,126.27c.68,1.47.85,1.77.52.88-.21-.63-.46-1.25-.75-1.85-.38-.91-.78-1.81-1.21-2.7-1.05-2.21-2.17-4.49-3.54-6.52-1.21-1.78-1.13-1.62-1.82-3.81-.3-.94-.57-1.87-1.13-2.7l-.93-1.2c-1.56-1.3-1.61-1.24-.15.18-2.37-7.25-13.87-4.15-11.48,3.17.47,1.44.95,2.64,1.91,3.8.57.74,1.24,1.35,2.03,1.85l-1.74-1.93c-.8,1.23,2.6,6.08,3.06,6.75,1.46,2.09,2.69,4.56,3.72,6.89.89,2.02,1.34,4.1,3.08,5.62,5.74,5.03,14.2-3.36,8.42-8.42h0Z"/>
  <path class="cls-16" d="m479.63,134.69c3.08.59,6.15,1.21,9.21,1.85s6.58-.89,7.32-4.16c.68-2.98-.9-6.64-4.16-7.32-3.07-.64-6.14-1.26-9.21-1.85s-6.57.85-7.32,4.16c-.67,2.94.89,6.69,4.16,7.32h0Z"/>
  <path class="cls-10" d="m490.35,134.76c.3,1.21,1.62,1.87,1.9,2.01.83.42,1.25.28,2.84.47,2.57.32,3.86.98,4.08.59.13-.24-.3-.56-.83-1.48-.65-1.13-.62-1.75-.95-2.6-.42-1.12-1.66-3.16-3.33-3.28-1.96-.13-4.17,2.4-3.71,4.28Z"/>
  <path class="cls-15" d="m164.11,355.8c-4.04-4.66-8.27-9.32-11.36-14.68l-10.28,6.01.43.55c3.63-1.53,7.25-3.06,10.88-4.59-2.68-3.82-7.45-8.59-8.51-13.18l-4.16,7.32c4.79-1.02,9.76-.97,14.62-1.56s9.42-1.38,14.11-.2l-4.37-5.74c-.32,6.38-.63,12.76-.95,19.14-.14,2.88-.28,5.77-.43,8.65-.08,1.6-.16,3.21-.25,4.81-.07,1.27-1.36,5.04.72,2.95h8.42c-1.8-1.81-4.57-3.89-5.77-6.2v6.01c1.96-3.85,2.62-7,2.04-11.32-.32-2.43-.89-4.78-1.44-7.17-.28-1.22-1.66-4.44-.9-5.6,3.17-4.87-2.06-9.38-6.72-8.75-2.39.32-4.74.1-7.07-.4-5.22-1.13-9.08,4.03-6.72,8.75,1.01,2.03,2.14,3.92,3.44,5.78,4.36,6.23,14.69.29,10.28-6.01-1.3-1.86-2.42-3.75-3.44-5.78-2.24,2.92-4.48,5.83-6.72,8.75,4.57.99,8.78,1.03,13.4.4-2.24-2.92-4.48-5.83-6.72-8.75-4.44,6.81.91,13.91.96,21.03.03,3.49-2.41,5.45-.66,9.06,1.6,3.29,5.1,6.07,7.63,8.61,2.27,2.28,6.15,2.28,8.42,0,4.41-4.42,2.93-14.29,3.21-20.03.4-7.98.79-15.96,1.18-23.94.13-2.54-1.93-5.13-4.37-5.74-5.83-1.46-11.39-.95-17.28-.23-5.93.73-11.92.74-17.78,1.98-3.24.69-4.85,4.34-4.16,7.32,1.36,5.86,6.33,11.21,9.71,16.03,3.63,5.18,13.14,2.25,10.88-4.59-.42-1.27-.82-2.32-1.63-3.4-4.46-5.99-14.21-.81-10.28,6.01,3.58,6.22,8.54,11.69,13.22,17.09,5.02,5.8,13.42-2.65,8.42-8.42h0Z"/>
  <path class="cls-15" d="m144.74,330.29l-.46-1.34-11.48,3.17c.28.69.56,1.38.84,2.08,3.63-1.53,7.25-3.06,10.88-4.59-2.64-4.17-5.16-8.41-7.51-12.76-1.17-2.17-2.34-4.35-3.39-6.58-.42-.88-2.38-4.14-2.21-4.95l-4.16,4.16c2.67-.78,6.99.16,9.86-.04,3.8-.25,7.59-.75,11.36-1.24,7.51-.97,15.39-2.3,22.97-1.27l-4.37-5.74c-.57,9-1.14,18-1.71,27-.49,7.78,11.03,7.43,11.91,0,.76-6.45-4.34-11.62-10.6-12.12-7.11-.57-14.57,3.51-21.72,1.59l3.56,2.74c-2.98-4.13-5.12-8.94-8.06-13.15l-5.14,8.96c4.73.51,9.36-.05,14-1,4.18-.86,9.14-3.16,13.42-2.92l-5.14-2.95c.17.72.21,1.44.11,2.18l5.74-4.37c-4.88.53-9.72,1.27-14.52,2.31-7.49,1.62-4.32,13.1,3.17,11.48,3.76-.81,7.53-1.47,11.36-1.89,2.34-.26,5.37-1.65,5.74-4.37.94-6.82-.11-15.15-8.87-14.14-8.55.99-16.22,4.69-25.01,3.75-4.38-.47-7.59,5.45-5.14,8.96s4.63,7.16,6.75,10.89c1.87,3.3,3.43,4.96,7.34,5.44,4.17.52,8.62.11,12.76-.41,1.74-.22,3.46-.54,5.18-.81,1.06-.27,2.14-.43,3.24-.48.74-.05.71.05-.09.3h11.91c.57-9,1.14-18,1.71-27,.15-2.3-1.94-5.41-4.37-5.74-8.84-1.19-17.34-.28-26.13.85-4.41.57-8.82,1.15-13.26,1.35-3.59.16-7.67-.65-11.13.35-1.9.55-3.75,2.14-4.16,4.16-1.12,5.49,1.85,11.03,4.24,15.78,3.05,6.07,6.45,11.94,10.08,17.68,3.42,5.4,13.53,1.95,10.88-4.59-.28-.69-.56-1.38-.84-2.08-2.81-6.91-14.01-4.23-11.48,3.17l.46,1.34c2.47,7.21,13.97,4.11,11.48-3.17h0Z"/>
  <path class="cls-15" d="m131.21,305.17c-.47-1.85-1.17-3.54-2.04-5.24-3.06-5.99-12.92-1.84-10.88,4.59l.87,2.74c3.63-1.53,7.25-3.06,10.88-4.59-9.23-20.85-15.05-43.21-17.22-65.91l-5.95,5.95c11.78,1.03,23.72.09,35.52-.3,5.62-.18,11.24-.32,16.85-.63,2.8-.16,5.6-.35,8.38-.66,1.24-.13,2.47-.29,3.71-.46.84-.1,1.67-.22,2.51-.35,1.39-.06,1.24-.27-.46-.66l-2.95-5.14c.42,6.55-.95,13.73-1.43,20.28-.56,7.67,11.26,7.57,11.91,0,.07-.82.14-1.65.21-2.47h-11.91l.11,1.57c.51,7.59,12.31,7.69,11.91,0l-.09-1.74c-.33-6.3-10.57-8.57-11.69-1.58-.4,2.48-.68,4.86-.68,7.37,0,6.96,9.52,7.76,11.69,1.58.53-1.49.67-2.72.74-4.3.33-7.68-11.48-7.62-11.91,0-.69,12.33-1.38,24.67-2.07,37-.38,6.72,10.09,8.06,11.69,1.58l.38-1.54-11.48-3.17c-.55,3.53-.9,6.99-.84,10.57.12,7.67,11.7,7.66,11.91,0l.09-3.41c.2-7.66-11.7-7.66-11.91,0l-.09,3.41h11.91c-.04-2.49.03-4.94.41-7.4,1.16-7.38-9.59-10.77-11.48-3.17l-.38,1.54c3.9.53,7.8,1.06,11.69,1.58.69-12.33,1.38-24.67,2.07-37h-11.91l-.31,1.13,11.69,1.58c-.07-1.41.01-2.81.25-4.2l-11.69-1.58.09,1.74h11.91l-.11-1.57c-.52-7.69-11.25-7.62-11.91,0-.07.82-.14,1.65-.21,2.47h11.91c.34-4.63.68-9.25,1.02-13.88.26-3.52,1.37-7.73-1.34-10.61-2.53-2.69-5.72-2.11-9-1.61-4.1.62-8.22.95-12.36,1.18-17.2.96-35.19,2.43-52.37.93-3-.26-6.24,2.95-5.95,5.95,2.38,24.95,8.7,49,18.84,71.91,2.73,6.18,12.9,1.78,10.88-4.59l-.87-2.74c-3.63,1.53-7.25,3.06-10.88,4.59.43.74.71,1.54.84,2.39,1.89,7.42,13.38,4.28,11.48-3.17h0Z"/>
  <path class="cls-15" d="m168.84,285.39c-6.06,1.23-12.16,2.3-18.3,3.07-2.86.36-5.72.66-8.59.92-2.61.23-6.29,1.24-8.81.7l3.56,2.74c-1.72-3.51-2.23-8.59-3.23-12.39-1.13-4.25-2.23-8.5-3.23-12.78s-1.62-8.53-2.68-12.73c-1.14-4.48-3.52-8.47-4.26-13.06-1.01-6.24-9.8-5.05-11.48,0-1.79,5.38.52,9.83,1.96,14.95s1.19,11.01,3.3,15.98c1.98,4.65,6.38,5.97,10.78,7.61,6.01,2.24,12.12,4.18,18.22,6.12l-1.42-10.88c-1.46.85-2.93,1.71-4.39,2.56l-1.46.85c-1.84.87-1.97,1.08-.39.62l4.16,4.16-.45-1.08-9.95,5.79c5.07,5.01,10.5,8.23,17.87,7.25,3.38-.45,6.43-1.65,9.56-2.98,2.9-1.23,6.95-2.09,9-4.61,3.78-4.64,2.32-14.36,2.33-19.95,0-3.75-.26-7.52-.19-11.27.09-4.35,1.4-7.42,3.54-11.18,2.34-4.12-1.65-10.76-6.72-8.75-6.35,2.53-13.28,2.09-19.95,3.17-7.05,1.15-13.89-.18-20.93-1.04-4.01-.49-6.57,4.18-5.74,7.54,1.5,6.09,4.84,11.38,4.56,17.64-.23,5.04,2.7,10.88,8.62,10.17s7.42-7.35,8.19-12.38c1.02-6.68.78-13.37.4-20.1l-5.95,5.95.58-.04-4.21-1.74c3.77,3.28,3.71,11.62,3.84,16.07.2,6.67-.34,13.32-.87,19.96s10.06,8,11.69,1.58c1.91-7.5,3.85-15,5.8-22.49l-11.69-1.58c.29,12.42.58,24.83.87,37.25.18,7.68,11.57,7.65,11.91,0,.45-10.34,1.09-20.53,4.75-30.31l-11.48-3.17c-1.47,8.42-2.49,16.88-3.03,25.41-.38,6.06,8.22,7.88,11.09,3,3.18-5.39,2.01-10.95,3.33-16.75h-11.48c.18,1.16.2,2.33.06,3.5-1.04,7.38,9.16,10.71,11.48,3.17,2.56-8.34,1.44-16.92,2.89-25.39.81-4.75-2.63-8.05-7.32-7.32-2.54.4-4.91,1.03-7.31,1.94-7.09,2.71-4.01,14.22,3.17,11.48,2.4-.92,4.77-1.55,7.31-1.94l-7.32-7.32c-1.44,8.4-.38,17.21-2.89,25.39l11.48,3.17c.49-3.43.49-6.4-.06-9.83-.94-5.88-10.24-5.47-11.48,0-.99,4.33.13,10.06-2.13,13.9l11.09,3c.47-7.47,1.32-14.87,2.6-22.25s-8.78-10.38-11.48-3.17c-4.02,10.71-4.68,22.15-5.18,33.48h11.91c-.29-12.42-.58-24.83-.87-37.25-.15-6.6-9.96-8.22-11.69-1.58-1.95,7.49-3.89,14.99-5.8,22.49l11.69,1.58c.77-9.55,1.5-19.16.14-28.7-.82-5.71-3.57-18.02-11.38-17.46-3.07.22-6.14,2.55-5.95,5.95.23,4.12.47,8.25.33,12.38-.07,2.11-.22,4.2-.59,6.28-.15.86-.33,1.72-.55,2.57-1.6,3.59.84,4.38,7.33,2.36,3.08-6.16-3.47-16.33-4.89-22.1l-5.74,7.54c7.58.93,14.8,2.19,22.4.91s14.73-.72,21.64-3.47l-6.72-8.75c-2.55,4.5-4.65,9.05-5.06,14.27-.46,5.91.15,11.99.05,17.93-.04,2.2-1.12,6.46-.27,8.38-.24,1.16-.07,1.24.5.24,1-1.02.65-1.03-1.05-.04-1.02.3-2.02.87-3,1.28-2.52,1.06-5.72,2.67-8.55,2.3-2.55-.33-4.29-2.32-6.03-4.03-3.9-3.85-12.36.03-9.95,5.79,4.3,10.3,13.31,3.93,20.03,0,4.55-2.66,3.38-9.35-1.42-10.88-4.27-1.36-8.55-2.72-12.79-4.18-2.77-.95-7.52-1.79-8.74-4-1.62-2.94-1.24-8.15-2.03-11.48-.7-3-3.38-7.36-2.39-10.35h-11.48c.7,4.31,2.88,8.02,4.03,12.19,1.22,4.45,1.86,9.09,2.91,13.59,1.91,8.18,3.92,16.44,6.37,24.47.99,3.24,2.03,5.66,5.67,6.45,3.97.86,9.03-.24,13.07-.63,9.45-.91,18.84-2.35,28.14-4.24,7.5-1.53,4.33-13-3.17-11.48h0Z"/>
  <path class="cls-15" d="m172.61,193.9c-.56,4.12-.92,8.15-.87,12.32.09,7.66,11.85,7.68,11.91,0l.06-7.92c.06-7.8-11.17-7.49-11.91,0-.43,4.43-.46,7.98.15,12.33.93,6.72,11.78,4.99,11.69-1.58l-.02-1.45h-11.91c.33,8.35-1.4,16.75-1.11,25.07.27,7.64,12.18,7.68,11.91,0-.29-8.29,1.44-16.73,1.11-25.07-.31-7.62-12-7.7-11.91,0l.02,1.45,11.69-1.58c-.43-3.11-.03-5.99.28-9.16h-11.91l-.06,7.92h11.91c-.03-3.06.04-6.12.45-9.15.43-3.21-.77-6.35-4.16-7.32-2.77-.79-6.89.97-7.32,4.16h0Z"/>
  <path class="cls-15" d="m172.33,199.21c-.03,1.08-.07,2.16-.2,3.23l.21-1.58c-.13.98-.33,1.96-.33,2.95-.03,3.11,2.76,6.1,5.95,5.95s5.93-2.62,5.95-5.95c0-.35.03-.68.08-1.02l-.21,1.58c.24-1.73.41-3.41.46-5.16.08-3.12-2.8-6.09-5.95-5.95s-5.87,2.62-5.95,5.95h0Z"/>
  <path class="cls-15" d="m101.64,191.51l-.11,3.07c-.24,6.86,9.77,7.88,11.69,1.58l.13-.42c1.77-5.82-5.79-9.81-9.95-5.79l-.44.43,10.16,4.21-.07-.97c-.55-7.64-11.41-7.68-11.91,0-.4,6.12-.62,12.24-.66,18.38-.05,7.73,11.4,7.58,11.91,0l.05-.74c.37-5.65-6.53-7.17-10.16-4.21l-.53.43,10.16,4.21.04-.8h-11.91c-.1,7.71.05,14.86.59,22.55s12.44,7.66,11.91,0-.68-14.97-.59-22.55-11.49-7.61-11.91,0l-.04.8c-.31,5.64,6.49,7.2,10.16,4.21l.53-.43-10.16-4.21-.05.74h11.91c.04-6.13.26-12.26.66-18.38h-11.91l.07.97c.37,5.06,6.28,7.96,10.16,4.21l.44-.43-9.95-5.79-.13.42,11.69,1.58.11-3.07c.27-7.66-11.64-7.65-11.91,0h0Z"/>
  <path class="cls-15" d="m106.25,214.47c7.66,0,7.67-11.91,0-11.91s-7.67,11.91,0,11.91h0Z"/>
  <path class="cls-15" d="m106.12,213.78c7.66,0,7.67-11.91,0-11.91s-7.67,11.91,0,11.91h0Z"/>
  <path class="cls-15" d="m113.71,189.95c1.68-16.11,5.61-31.07,10.84-46.42,2.48-7.27-9.02-10.39-11.48-3.17-5.6,16.43-9.47,32.34-11.27,49.58-.79,7.61,11.12,7.56,11.91,0h0Z"/>
  <path class="cls-15" d="m123.47,150.37c10.76.06,21.49.78,32.21,1.74,2.6.23,5.2.48,7.79.73,1.2.12,2.76.02,3.91.39,2.2.71-.22-.88.87.62,1.16,1.6,1.78,3.59,2.93,5.23,1.31,1.87,2.89,3.06,3.43,5.29.39,1.63,1.24,4.32,1.28,5.93-.04-1.97-.08-1.15-1.5-.4-.93.49-1.82,1.37-2.65,2.02-3.59,2.82-7.21,5.91-9.95,9.59-5.9,7.91-2.23,16.49,6.82,19.2,7.36,2.2,10.5-9.29,3.17-11.48-1.37-.41-.72-.09-.62-.48.21-.78,1.69-1.88,2.23-2.43,1.69-1.71,3.49-3.33,5.36-4.84,3.33-2.7,7.56-4.73,8.74-9.19.91-3.43-.68-8.34-1.51-11.75-1.04-4.3-4.43-6.88-6.42-10.67s-3.79-6.84-8.02-8c-4.64-1.27-10.09-1.13-14.87-1.56-11.04-1.01-22.1-1.77-33.19-1.83-7.66-.04-7.67,11.86,0,11.91h0Z"/>
  <path class="cls-15" d="m141.27,220.16c-.14-2.45-.13-4.86.09-7.31-.27,3.07.7-3.64.85-4.31.91-4.23,2.03-8.42,2.86-12.67,1.96-10.06,2.15-20.05,2.25-30.25l-13.11,17.22c-2.94.4,3.86-.28,4.49-.32,1.85-.13,3.71-.23,5.57-.33s3.6-.2,5.39-.24c1.13-.04,2.25-.04,3.38.01-.99.05-1.86-.24-2.62-.87l4.27-32.64c-6.52,1.82-13.2,6.03-17.75,11.06-5.59,6.18-7.73,13.39-7.85,21.58,0,.48-.19,3.92.13,1.38-.16,1.24-.53,2.49-.81,3.71-.67,2.93-1.38,5.86-2.07,8.78-1.68,7.15-3.33,14.3-3.54,21.68-.27,9.23,8.41,18.43,17.86,17.86,2.19-.13,4.37-.22,6.57-.21.94,0,1.88.02,2.82.05,3.64.28,2.53-.08-3.34-1.1l-6.41-6.41.55.86-2.44-9.01.13.98c11.69-1.58,23.39-3.17,35.08-4.75.27,2.02.37,1.97.3-.17-.31,2.02-.22,1.99.27-.1,2.48-9-3.07-19.83-12.47-21.97-9.44-2.15-19.31,2.84-21.97,12.47-1.84,6.67-1.61,12.52-.57,19.26,1.35,8.75,11.7,13.85,19.6,12.79s16.63-8.73,15.49-17.54-5.58-17.39-15.33-19.92c-5.85-1.52-12.27-1.32-18.27-.96l17.86,17.86c.19-2.23.14-2.58-.15-1.05.2-1.28.45-2.56.72-3.82.39-1.86.85-3.7,1.28-5.55,1.04-4.43,2.21-8.85,3.11-13.32.62-3.1,1.15-6.27,1.3-9.43.03-1.05.04-2.11.03-3.16.07-1.86.06-2.1-.02-.74,0,2-.87,3.73-2.59,5.21.61-.7,1.28-1.34,2-1.93-1.75,1.35-1.82,1.46-.2.32,1.81-1.08,1.88-1.17.19-.27,6.86-1.92,11.86-7.87,12.79-14.85.86-6.4-2.1-14.95-8.53-17.79-13.88-6.14-29.1-3.85-43.74-1.85-7.68,1.05-13.04,10.14-13.11,17.22-.05,4.75,0,9.51-.24,14.25,0-.04-.46,5.85-.09,2.86-.3,2.44-.88,4.87-1.42,7.27-2.21,9.91-4.86,19.91-4.29,30.16.52,9.31,7.85,18.31,17.86,17.86,9.23-.41,18.41-7.87,17.86-17.86h0Z"/>
  <path class="cls-15" d="m170.41,191.26c.7.71,1.36,1.05,2.28,1.41,1.38.54,2.99-.48,3.51-1.72.61-1.46,0-2.82-1.22-3.72l-.37-.27-2.29,5.44c1.52.64,2.8,1.48,4.24,2.22s3.65.35,4.39-1.32c.62-1.41.49-3.27-1.07-4.07l-.53-.27c-2.85-1.46-6.31,2.36-3.61,4.67.82.7,1.62,1.19,2.67,1.4.4.08.81.09,1.21.12.29,0,.59.02.88.05.67.09.41-.06-.75-.46l-.87-2.1v-.06c-1.18,3.12,4.05,5.36,5.45,2.29-.64.51-.58.47.16-.11.52-.26.66-.47.43-.63,2.74-2.69-1.47-6.9-4.21-4.21-.25.24-1.25,1.63-.25.43-.45.54-.95.81-1.27,1.52l5.44,2.29c.6-1.59-.02-3.48-1.51-4.35-.7-.41-1.53-.46-2.32-.54-.53-.05-1.55-.45-.85.14l-3.61,4.67.53.27-1.07-4.07-.09.19,1.78-1.37-.23.06,2.29.3c-1.79-1.21-3.67-1.98-5.66-2.82-1.36-.57-3,.51-3.51,1.72-.61,1.46,0,2.82,1.22,3.72l.37.27,2.29-5.44.35.13c-2.68-2.74-6.89,1.47-4.21,4.21h0Z"/>
  <path class="cls-15" d="m184.89,191.78c1.92,0,1.92-2.98,0-2.98s-1.92,2.98,0,2.98h0Z"/>
  <path class="cls-15" d="m171.13,187.93c3.16-.63,6.1-2.98,8.73-4.73l-7.21-9.35-.4.12c-6.89,3.54-.85,13.45,6.01,10.28,4.63-2.14,9.34-4.12,13.67-6.83,5.45-3.41,1.99-13.38-4.59-10.88l-.86.33c-4.94,1.88-6.33,10.26,0,11.48l.64.12-1.42-10.88-.77.42c-6.76,3.7-.79,13.73,6.01,10.28,3.9-1.98,7.8-3.95,11.7-5.93,6.84-3.46.82-13.74-6.01-10.28-3.9,1.98-7.8,3.95-11.7,5.93l6.01,10.28.77-.42c4.28-2.35,3.66-9.9-1.42-10.88l-.64-.12v11.48l.86-.33-4.59-10.88c-4.32,2.71-9.04,4.7-13.67,6.83l6.01,10.28c1.05-.54,1.9-1.24,2.81-1.98,5.22-4.26-1.61-13.08-7.21-9.35-1.67,1.11-3.88,3.13-5.89,3.53-7.51,1.51-4.33,12.98,3.17,11.48h0Z"/>
  <path class="cls-15" d="m205.14,170.95l1.22-.67c6.74-3.72.78-13.76-6.01-10.28l-2.01,1.03c-5.9,3.02-1.77,13.32,4.59,10.88,2.82-1.08,5.23-2.47,7.81-4.02l-6.01-10.28-.73.51c-6.23,4.34-.84,13.94,6.01,10.28,2.61-1.4,5.22-2.79,7.84-4.19l-6.01-10.28-.95.73c-5.9,4.53-.91,14.12,6.01,10.28,1.97-1.09,3.91-2.25,5.91-3.28.8-.41,3.5-2.39,3.98-2.48l-7.32-7.32-.02.12,5.74-4.37h-.09c1,3.69,2,7.38,3,11.08.84-.59,1.73-1.06,2.69-1.42l-6.01-10.28-1.62,1.06,6.01,10.28c1.06-.67,2.09-1.38,3.1-2.14-2.4-3.12-4.81-6.23-7.21-9.35l-.69.64c-5.62,5.23,2.81,13.64,8.42,8.42l.69-.64c4.84-4.51-1.65-13.36-7.21-9.35-1,.76-2.04,1.47-3.1,2.14-6.36,4.21-.43,14.5,6.01,10.28l1.62-1.06c6.53-4.28.9-13.35-6.01-10.28-.96.35-1.86.83-2.69,1.42-5.41,3.31-2.61,10.45,3,11.09h.09c2.3.28,5.4-2.01,5.74-4.36l.02-.12c.67-4.62-2.53-8.24-7.32-7.32-1.77.34-3.74,2.02-5.34,2.86-2.49,1.31-4.93,2.73-7.39,4.1l6.01,10.28.95-.73c5.91-4.54.96-14.01-6.01-10.28-2.61,1.4-5.22,2.79-7.84,4.19l6.01,10.28.73-.51c6.19-4.32.67-14.27-6.01-10.28-1.65.98-3.16,2.12-4.97,2.82l4.59,10.88,2.01-1.03-6.01-10.28-1.22.67c-6.71,3.71-.71,13.99,6.01,10.28h0Z"/>
  <path class="cls-15" d="m222.79,160.97c7.66,0,7.67-11.91,0-11.91s-7.67,11.91,0,11.91h0Z"/>
  <path class="cls-15" d="m189.85,168.51c.37-1.23,4.24-2.49,5.42-3.12,2.46-1.31,4.94-2.56,7.44-3.78,5.01-2.44,10.09-4.72,15.2-6.96,8.91-3.9,18.24-7.25,25.16-14.38,3.36-3.46,1.14-10.59-4.21-10.16-9.98.79-19.49,3.37-28.36,8.07-4.02,2.13-7.83,4.64-11.86,6.75-4.78,2.5-9.88,3.88-15.08,5.2l7.32,7.32c1.69-5.19,4.23-11.54-1.87-14.91-1.89-1.04-4.1-.96-6.02-1.86-2.6-1.21-4.24-3.43-5.04-6.11l-4.16,7.32c7.81-1.58,14.46-5.91,21.97-8.32,4.19-1.35,8.39-1.53,12.76-1.59,2.01-.03,4.01-.04,6.02-.03.65,0,5.63-.37,5.81-.16l-1.74-4.21c.15-2.53-2.84-.2-4.3.36-2.09.79-4.18,1.56-6.31,2.24-4.59,1.47-9.31,2.63-14.16,2.23-3.88-.32-7.57-1.31-11.25.62-2.9,1.52-5.22,4.61-5.26,7.98-.09,7.87,9.66,9.36,15.71,9.31,7.55-.07,14.34-2.95,20.06-7.76s-2.59-13.32-8.42-8.42c-4.4,3.7-12.62,6.18-18.02,3.09l2.74,3.56-.86,2.88,1.84.24c1.25.43,3.07.4,4.39.45,2.46.1,4.89-.15,7.32-.52,5.63-.85,10.97-2.72,16.27-4.76,3.83-1.47,7.96-2.93,10.5-6.32s2.02-8.48-1.83-10.92-9.16-1.79-13.34-1.79c-5.09,0-10.23-.07-15.28.7-9.85,1.5-18.06,7.7-27.77,9.67-3.11.63-5.02,4.4-4.16,7.32,1.25,4.23,3.49,7.96,6.91,10.78,1.51,1.25,3.11,2.24,4.9,3.03,1.12.49,2.26.98,3.46,1.2,2.26.42,1.06.89.29-.72l-.6-4.59c-.38,2.35-1.29,4.59-2.03,6.85-1.45,4.45,3.11,8.39,7.32,7.32,9.23-2.33,17.12-5.86,25.33-10.63s17.06-8.18,26.81-8.96l-4.21-10.16c-7.63,7.86-19.79,11.11-29.54,15.53-5.35,2.43-10.66,4.96-15.85,7.72-4.71,2.5-9.27,4.8-10.89,10.23-2.2,7.36,9.29,10.5,11.48,3.17h0Z"/>
  <path class="cls-15" d="m124.99,141.84c4.33-8.8,7.73-17.99,12.32-26.69,3.57-6.77-6.7-12.8-10.28-6.01-4.59,8.7-7.99,17.89-12.32,26.69-3.37,6.85,6.9,12.89,10.28,6.01h0Z"/>
  <path class="cls-15" d="m132.81,109.89c3.75-6.22,8.3-11.89,12.7-17.65s-4.66-11.78-9.35-7.21c-1.49,1.44-2.16,2.84-2.94,4.73l11.48,3.17c.43-1.88,3.04-4.34,4.17-5.73,1.69-2.09,3.47-4.11,5.28-6.1,4.61-5.05-1.15-12.42-7.21-9.35l-.53.27c2.4,3.12,4.81,6.23,7.21,9.35,6.92-8.44,13.9-16.58,22.21-23.71,5.82-5-2.63-13.39-8.42-8.42-8.3,7.13-15.29,15.27-22.21,23.71-4.23,5.16.94,12.53,7.21,9.35l.53-.27c-2.4-3.12-4.81-6.23-7.21-9.35-4.19,4.59-11.1,10.85-12.52,17.09-1.74,7.67,8.62,10.09,11.48,3.17l-.12.52-9.35-7.21c-4.4,5.76-8.95,11.43-12.7,17.65-3.97,6.58,6.32,12.57,10.28,6.01h0Z"/>
  <path class="cls-15" d="m141.69,102.13c7.66,0,7.67-11.91,0-11.91s-7.67,11.91,0,11.91h0Z"/>
  <path class="cls-15" d="m174.76,65.66c1.98-1.72,3.96-3.45,5.94-5.17,5.06-4.41-1.58-13.1-7.21-9.35l-.72.48,7.21,9.35c7.4-8.01,17.65-14.81,27.18-20.02,5.76-3.15,1.75-13.52-4.59-10.88-1.33.55-2.51,1.02-3.7,1.83-6.35,4.31-.89,13.68,6.01,10.28,1.74-.86,3.05-2.22,4.68-3.25.72-.46,1.54-.7,2.26-1.16,1.02-.64,2.73-1.26.39-1.02,7.55-.78,7.63-12.7,0-11.91-5.43.56-8.67,4.74-13.34,7.05l6.01,10.28.86-.63-4.59-10.88c-5.41,2.96-10.53,6.31-15.41,10.09s-10.08,7.37-14.17,11.8c-4.39,4.76,1.35,13.25,7.21,9.35l.72-.48-7.21-9.35-5.94,5.17c-5.79,5.04,2.66,13.44,8.42,8.42h0Z"/>
  <path class="cls-15" d="m214.1,35.35c2.99-.16,4.96-1.22,7.41-2.84,6.48-4.28.9-13.45-6.01-10.28-1.03.47-2.06.94-3.09,1.42-6.96,3.19-.91,13.44,6.01,10.28,4.16-1.9,8.31-3.8,12.47-5.7,6.06-2.77,1.67-13.45-4.59-10.88l-4.09,1.68c-6.88,2.83-4.46,13.51,3.17,11.48,2.3-.61,4.44-1.52,6.48-2.74,5.73-3.44,2.01-12.73-4.59-10.88l-1.34.38c-7.46,2.09-4.29,12.92,3.17,11.48,1.47-.29,2.41-1.14,3.7-1.68.91-.38,2.31-.7,3.78-1.2,5.25-1.79,6.06-10.06,0-11.48l-.69-.16v11.48c1.84-.64,3.64-1.32,5.44-2.05,7.01-2.84,3.95-14.36-3.17-11.48-1.8.73-3.6,1.41-5.44,2.05-5.22,1.82-6.09,10.06,0,11.48l.69.16v-11.48c-1.8.61-3.7,1.11-5.43,1.91-.43.18-.87.37-1.3.55-1.32,1.14-1.57,1.28-.75.43l3.17,11.48,1.34-.38-4.59-10.88c-1.26.76-2.21,1.16-3.64,1.54l3.17,11.48,4.09-1.68-4.59-10.88c-4.16,1.9-8.31,3.8-12.47,5.7l6.01,10.28c1.03-.47,2.06-.94,3.09-1.42l-6.01-10.28c-.49.32-2.79,1.29-1.4,1.21-7.62.4-7.67,12.31,0,11.91h0Z"/>
  <path class="cls-15" d="m228.32,28.51c7.66,0,7.67-11.91,0-11.91s-7.67,11.91,0,11.91h0Z"/>
  <path class="cls-15" d="m245.18,22.42c.6-.18,1.17-.43,1.75-.67,2.15-.91-.37.03.58-.18s1.73-.58,2.62-.82c1.2-.32,2.3-.52,3.44-1.1.65-.33.36-.19-.13-.02.73-.25,1.45-.51,2.16-.84,2.82-1.33,3.77-5.61,2.14-8.15-1.87-2.91-5.12-3.56-8.15-2.14.3-.14,1.05-.48.3-.27-.65.18-1.28.54-1.88.85.52-.27.36-.08-.15.02s-.96.17-1.44.34c-.69.24-1.36.45-2.07.65-.52.15-.99.35-1.49.56-2.2.93.91-.23-.84.29-2.98.9-5.16,4.21-4.16,7.32s4.13,5.12,7.32,4.16h0Z"/>
  <path class="cls-15" d="m254.77,19.39c7.34-2.69,15.31-3.76,22.99-5.02s4.34-12.71-3.17-11.48-15.65,2.33-22.99,5.02-4.05,14.13,3.17,11.48h0Z"/>
  <path class="cls-15" d="m279.4,14.37c3.76-.91,7.42-1.41,11.28-1.53,3.36-.1,6.89-.73,10.2-.48,7.64.58,7.6-11.33,0-11.91-3.82-.29-8.08.33-11.93.53-4.29.22-8.54.9-12.71,1.91-7.44,1.8-4.29,13.29,3.17,11.48h0Z"/>
  <path class="cls-15" d="m303.98,12.39c7.43.17,14.98.34,22.36,1.27,3.22.4,5.92-3.03,5.95-5.95.04-3.55-2.78-5.55-5.95-5.95-7.38-.93-14.93-1.1-22.36-1.27s-7.66,11.73,0,11.91h0Z"/>
  <path class="cls-15" d="m325.39,13.36c7.72,1.2,15.24,2.6,22.84,4.24s10.66-9.86,3.17-11.48-15.12-3.04-22.84-4.24c-3.2-.5-6.36.82-7.32,4.16-.81,2.82.99,6.83,4.16,7.32h0Z"/>
  <path class="cls-15" d="m353.02,18.84c-2.01-.74-2.55-.85-1.64-.34.55.24,1.1.47,1.65.69.55.18,1.09.3,1.66.38,3.07.46,6.55-.77,7.32-4.16s-1.06-6.07-4.16-7.32l.71.27-1.42,10.88c-2.68-.65-3.54-.69-2.57-.13.49.32,1.02.55,1.6.71.54.21,1.09.41,1.64.59,1.05.35,2.1.75,3.18,1.04,3.01.8,6.6-1,7.32-4.16s-.94-6.47-4.16-7.32c-.72-.19-1.43-.45-2.14-.69-.46-.16-.92-.31-1.39-.47-.77-.25-.93-.31-.46-.16.36.13.32.08-.12-.14-.65-.34-1.33-.6-2.04-.78-1.26-.3-2.8-.4-4.03.02-2.28.77-3.94,2.51-4.26,4.95-.3,2.24.73,4.85,2.84,5.93.69.36,1.42.64,2.14.93l3.17-11.48c-.32-.05-.64-.13-.96-.17-1.05-.13.29.25,0,0-.86-.76-2.81-1.08-3.89-1-3.1.23-6.1,2.58-5.95,5.95.14,3.03,2.63,6.19,5.95,5.95h0Z"/>
  <path class="cls-15" d="m357.79,19.81c7.66,0,7.67-11.91,0-11.91s-7.67,11.91,0,11.91h0Z"/>
  <path class="cls-15" d="m363.95,22.25c6.58,2.35,13.06,4.76,19.25,7.98,6.79,3.53,12.82-6.74,6.01-10.28s-14.52-6.47-22.1-9.18-10.34,8.91-3.17,11.48h0Z"/>
  <path class="cls-15" d="m392.66,27.24l.13-.37-8.75,3.56c3.56,2.25,7.47,3.99,11.17,6.02,3.46,1.9,6.95,5.01,10.78,5.97,7.44,1.85,10.61-9.63,3.17-11.48-1.3-.32-2.95-1.92-4.12-2.62-1.64-.98-3.32-1.88-4.99-2.79-3.31-1.8-6.8-3.36-9.98-5.37-3.43-2.17-7.55.07-8.75,3.56l-.13.37c-2.5,7.26,9,10.38,11.48,3.17h0Z"/>
  <path class="cls-15" d="m404.08,40.45c7.66,0,7.67-11.91,0-11.91s-7.67,11.91,0,11.91h0Z"/>
  <path class="cls-15" d="m407.61,43.82c1.21.62,3.47,2.29,4,2.65.63.43,2.72,2.14,4.05,2.97,1.17.73,2.09,1.87,3.17,2.83s1.84,1.34,3.15,1.87l-.74-.61c.57.49,1.14.97,1.7,1.46,2.44,2.09,6.02,2.4,8.42,0,2.14-2.14,2.46-6.32,0-8.42-1.34-1.14-2.65-2.39-4.22-3.19-3.76-1.92,1.17,1.64-1.17-.86-.63-.67-1.43-1.22-2.14-1.78-2.7-2.12-5.67-4.34-8.86-5.62l2.63,1.53c-1.27-1.19-2.39-2.3-3.98-3.11-6.82-3.45-12.85,6.81-6.01,10.28h0Z"/>
  <path class="cls-15" d="m425.71,57.35c.47.61,4.38,4.28,4.69,3.93-.02.02-1.18-1.03-.17-.12.3.27.6.54.9.82.68.64,1.32,1.31,1.92,2.03,2.01,2.4,6.37,2.23,8.42,0,2.34-2.55,2.14-5.86,0-8.42-1.06-1.27-2.27-2.44-3.56-3.48-.53-.43-1.07-.83-1.65-1.2-.61-.39-.66-.24-.06.04-.77-.37-1.56-1.37-2.07-2.02-1.92-2.47-6.43-2.17-8.42,0-2.41,2.62-2.05,5.78,0,8.42h0Z"/>
  <path class="cls-15" d="m434.38,65.16c1.28,2.11,3.41,3.75,5.16,5.45.78.75,1.34,1.71,2.14,2.44l1.2.93c1.89.84,1.9.8.03-.11l-.17-.23c.26.34.51.67.77,1.01,1.88,2.47,5.22,4.02,8.15,2.14,2.44-1.57,4.15-5.5,2.14-8.15-1.88-2.47-3.34-4.37-6.32-5.54l2.63,1.53c-1.08-1.05-1.96-2.26-3.08-3.3-.57-.53-1.05-1.15-1.62-1.68-.3-.28-1.44-1.65-.74-.51-1.62-2.66-5.41-3.9-8.15-2.14s-3.87,5.3-2.14,8.15h0Z"/>
  <path class="cls-15" d="m445.21,75.61c.51,1.35,1.14,2.41,2.14,3.45.14.14.9,1.05.37.33s.22.37.25.43c.93,1.47,1.76,3.1,3.1,4.24,2.27,1.95,5.36,2.37,7.82.47s2.74-4.91,1.53-7.68c-.37-.85-.94-1.6-1.63-2.23-2.3-2.1-6.17-2.45-8.42,0s-2.32,6.03,0,8.42c.26.27.5.55.75.82.56.59-.79-1.13,0,.05,1.74,2.57,5.32,3.96,8.15,2.14,2.56-1.65,4-5.39,2.14-8.15-.78-1.15-1.64-2.27-2.62-3.28l-8.42,8.42c-.45-.71-.53-.77-.24-.18l9.35-7.21c-.61-.53.03,0,.1.31-.05-.21-.34-.51-.46-.7-.34-.54-.65-1.09-.99-1.62-.83-1.29-1.89-2.34-2.86-3.5l1.53,2.63-.12-.32c-1.1-2.9-4.07-5.21-7.32-4.16-2.84.92-5.34,4.2-4.16,7.32h0Z"/>
  <path class="cls-15" d="m459.33,79.4c.87,1.43,1.75,2.85,2.65,4.26s3.03.5,2.72-1.15l-.06-.29-2.72,1.15c.42.84.94,1.53,1.61,2.2,1.19,1.17,3.23-.34,2.34-1.8l-.42-.76-2.72,1.15c1.09,1.71,2.26,3.73,4,4.84l1.15-2.72c-3.17-.98-6.16-1.58-9.44-2.07l-.4,2.92c1.65-.16,3.28-.41,4.9-.76,1.11-.24,1.42-1.73.66-2.49-.3-.32-.63-.62-.98-.88-1.47-1.2-3.59.89-2.1,2.1.35.26.68.56.98.88l.66-2.49c-1.36.29-2.72.52-4.11.65-1.52.15-2.19,2.66-.4,2.92,3.28.49,6.28,1.09,9.44,2.07,1.66.51,2.53-1.83,1.15-2.72-1.2-.77-2.17-2.57-2.93-3.78-.86-1.34-3.39-.48-2.72,1.15.23.55.41.97.72,1.48l2.34-1.8c-.5-.49-.83-.97-1.14-1.59-.8-1.59-3.02-.42-2.72,1.15l.06.29,2.72-1.15c-.9-1.41-1.78-2.83-2.65-4.26-.99-1.63-3.57-.14-2.57,1.5h0Z"/>
  <path class="cls-15" d="m434.67,82.45l6.45,1.02.4-2.92h-1.32c-1.61.02-2.1,2.66-.4,2.93,4.6.75,9.17,1.64,13.71,2.7,1.86.43,2.66-2.44.79-2.87-4.54-1.05-9.11-1.95-13.71-2.7l-.4,2.92h1.32c1.61-.02,2.1-2.66.4-2.93-2.15-.34-4.3-.68-6.45-1.02-1.87-.3-2.68,2.57-.79,2.87h0Z"/>
  <path class="cls-15" d="m413.87,78.37c.95-.03,1.89.08,2.81.31l.4-2.92-1.19-.05c-1.65-.07-2.06,2.61-.4,2.92,6.24,1.19,12.46,2.45,18.68,3.77,1.87.4,2.67-2.47.79-2.87-6.21-1.32-12.44-2.57-18.68-3.77l-.4,2.92,1.19.05c1.65.07,2.05-2.59.4-2.92-1.21-.24-2.37-.38-3.6-.41-1.92-.05-1.92,2.93,0,2.98h0Z"/>
  <path class="cls-15" d="m361.72,96.08c2.26-.68,4.55-1.31,6.79-2.06,1.74-.58,3.62-1.13,5.24-1.98,1.7-.89.19-3.46-1.5-2.57-.9.47-1.79.52-2.71.85-.86.31-1.66.78-2.55,1.06-2.02.62-4.04,1.22-6.06,1.83-1.83.55-1.05,3.43.79,2.87h0Z"/>
  <path class="cls-15" d="m374.22,91.75c1.81-.88,3.94-1.4,5.84-2.13,2.06-.79,4.23-1.19,6.23-2.18,1.72-.85.21-3.42-1.5-2.57-3.81,1.89-8.25,2.46-12.07,4.31-1.72.84-.21,3.41,1.5,2.57h0Z"/>
  <path class="cls-15" d="m386.04,87.76c3.57-1.02,6.95-2.47,10.45-3.71,2.7-.95,5.67-1.62,8.24-2.82,1.73-.81.22-3.38-1.5-2.57-2.72,1.28-6.01,1.99-8.86,2.99-3.05,1.07-6.01,2.35-9.12,3.24-1.84.53-1.06,3.4.79,2.87h0Z"/>
  <path class="cls-15" d="m405.04,80.84h.21c-.25-.91-.5-1.84-.75-2.76l-.17.09c-1.73.92-.21,3.31,1.5,2.57,2.31-.99,4.91-1.23,7.16-2.3,1.73-.82.22-3.39-1.5-2.57-1.06.51-2.3.59-3.41,1-1.25.46-2.53.77-3.75,1.3l1.5,2.57.17-.09c1.38-.73.64-2.69-.75-2.77h-.21c-1.91-.13-1.91,2.85,0,2.96h0Z"/>
  <path class="cls-15" d="m415.16,78.62c1.92,0,1.92-2.98,0-2.98s-1.92,2.98,0,2.98h0Z"/>
  <path class="cls-15" d="m333.15,106.27c6.34-2.32,12.68-4.64,19.02-6.96l-1.15-2.72-1.14.49c-1.55.67-.45,3.23,1.15,2.72,3.52-1.13,7.07-2.17,10.46-3.65,1.75-.77.24-3.33-1.5-2.57-3.14,1.38-6.49,2.3-9.75,3.35l1.15,2.72,1.14-.49c1.53-.66.44-3.3-1.15-2.72-6.34,2.32-12.68,4.64-19.02,6.96-1.78.65-1.01,3.53.79,2.87h0Z"/>
  <path class="cls-15" d="m300.74,117.56c3.4-2.03,7.91-3.01,11.62-4.33s7.45-2.65,11.18-3.97l-.79-2.87-1.32.49c-1.77.65-1.04,3.49.79,2.87,3.28-1.11,6.55-2.21,9.83-3.32,1.81-.61,1.03-3.49-.79-2.87-3.28,1.11-6.55,2.21-9.83,3.32l.79,2.87,1.32-.49c1.78-.66,1.03-3.52-.79-2.87-4.3,1.53-8.6,3.06-12.9,4.58-3.5,1.24-7.42,2.11-10.61,4.02-1.64.98-.15,3.56,1.5,2.57h0Z"/>
  <path class="cls-15" d="m304.29,116.24c.41-.23.82-.34,1.28-.45.54-.14,1.03-.38,1.51-.66,1.64-.98.15-3.56-1.5-2.57-.82.49-1.87.62-2.78,1.11-.71.39-.93,1.36-.53,2.04s1.33.92,2.04.53h0Z"/>
  <path class="cls-15" d="m292.07,114.76c.45.62.94,1.06,1.62,1.41.72.37.71.79,1.25,1.38,1.16,1.28,3.13.99,4.48.22,1.66-.95.17-3.52-1.5-2.57-1.07.61-.78,0-1.45-.74-.48-.52-1.44-.67-1.83-1.21-1.12-1.53-3.7-.05-2.57,1.5h0Z"/>
  <path class="cls-15" d="m291.99,114.93c1.92,0,1.92-2.98,0-2.98s-1.92,2.98,0,2.98h0Z"/>
  <path class="cls-15" d="m292.57,115.31c1.92,0,1.92-2.98,0-2.98s-1.92,2.98,0,2.98h0Z"/>
  <path class="cls-15" d="m288.44,116.66c.94-.38,1.81-.79,2.69-1.31,1.17-.7.79-2.95-.75-2.77-2.8.32-4.88,2.45-7.23,3.88-2.91,1.77-5.8,3.56-8.69,5.34l1.8,2.34c.55-.42,1.07-.87,1.56-1.36,1.27-1.18-.35-3.11-1.8-2.34s-2.51,1.83-3.88,2.59c-1.68.92-.18,3.49,1.5,2.57,1.38-.75,2.48-1.85,3.88-2.59l-1.8-2.34c-.49.49-1.01.94-1.56,1.36-1.32,1.07.38,3.21,1.8,2.34,2.41-1.49,4.81-2.92,7.21-4.44,1.3-.82,2.65-1.56,3.92-2.43,1.01-.69,2.01-1.79,3.29-1.94l-.75-2.77c-.62.41-1.28.74-1.97,1.01-1.75.71-.99,3.59.79,2.87h0Z"/>
  <path class="cls-15" d="m246.26,142.11c6.45-3.28,13.03-7.14,18.79-11.56l-2.04-.53.11.16c.27.41.76.79,1.29.74,2.98-.28,6.25-3.19,8.61-4.87,1.55-1.1.06-3.69-1.5-2.57-.99.71-6.86,3.6-5.93,5.04-.4-.61-1.37-1.04-2.04-.53-5.71,4.39-12.38,8.31-18.79,11.56-1.71.87-.2,3.44,1.5,2.57h0Z"/>
  <path class="cls-15" d="m238.84,146.54c1.22-.86,2.48-1.45,3.86-1.98.54-.21,1.08-.43,1.56-.77s.87-1.03,1.37-1.27c1.73-.81.22-3.38-1.5-2.57-.58.27-.81.69-1.25,1.11-.49.48-1.09.65-1.71.89-1.37.52-2.64,1.17-3.83,2.01-1.55,1.09-.07,3.68,1.5,2.57h0Z"/>
  <path class="cls-15" d="m238.31,152.27c.22-2.15.66-4.39.06-6.51-.52-1.84-3.4-1.06-2.87.79s.02,3.88-.17,5.72,2.79,1.89,2.98,0h0Z"/>
  <path class="cls-15" d="m235.47,145.16c-1.23.33-2.46,1.28-2.67,2.6s.86,2.21.84,3.49c-.03,1.92,2.94,1.92,2.98,0,.01-.8-.11-1.58-.41-2.32-.1-.24-.46-.71-.47-.94.01.51.21.13.53.05,1.85-.5,1.06-3.37-.79-2.87h0Z"/>
  <path class="cls-15" d="m232.44,156.43c1.37-.82,2.77-1.55,4.17-2.31,1.69-.9.19-3.47-1.5-2.57-1.4.75-2.81,1.49-4.17,2.31-1.64.99-.15,3.56,1.5,2.57h0Z"/>
  <path class="cls-15" d="m237.31,153.63c1.92,0,1.92-2.98,0-2.98s-1.92,2.98,0,2.98h0Z"/>
  <path class="cls-15" d="m205.84,153.07c4.2-7.01,8.4-14.03,12.6-21.04,1.93-3.22,3.83-6.46,5.83-9.64.99-1.58,2.09-3.09,3.07-4.68,3.18-5.12-4.43,5.14.2-.33,2.37-2.8,4.93-5.44,7.63-7.93,1.23-1.14,2.5-2.25,3.78-3.33,1.63-1.37,6.3-4.56-.78.47,5.91-4.19,11.8-8.33,17.88-12.3,10.69-6.98,17.85-20.73,13.68-33.61s-15.24-22.18-28.7-21.85c-10.67.26-20.67,2.93-29.86,8.41,14.93,8.57,29.86,17.13,44.79,25.7l-.02-1.31-1.06,7.91.32-1.21-3,7.11c-3.66,4.09-4.42,5.08-2.28,2.96-4.49,3.32-5.28,4.05-2.37,2.18,2.12-1.09,4.13-2.42,6.23-3.55,4.19-2.25,8.49-4.27,12.86-6.14l-7.11,3c11.44-4.71,23.3-7.99,35.54-9.73l-7.91,1.06c1.15-.16,2.31-.3,3.47-.43,8.16-.95,15.02-2.69,21.05-8.72,5.16-5.16,9.05-13.63,8.72-21.05-.76-16.89-13.08-28.82-29.77-29.77l-1.26-.07,7.91,1.06-1.2-.45,7.11,3,8.21,7.56c-5.93,14.58-11.86,29.15-17.79,43.73,4.21-1.22,8.43-2.14,12.76-2.8l-7.91,1.06c11.16-1.46,22.29-1,33.42.5l-7.91-1.06c13.87,2.01,28.77,4.57,41.97,9.38l-7.11-3c4.6,2.19-3.61-3.81-1.42-1.63.83.82,1.71,1.61,2.59,2.36,5.04,4.29,10.13,7.63,16.62,9.37,15.02,4.03,33.03-5.05,36.62-20.79s-4.7-32.3-20.79-36.62l-1.25-.33,7.11,3c-4.12-2.13,6.27,5.38.67.44-3.14-2.78-6.41-5.28-10.11-7.2-5.62-2.92-11.44-4.37-17.51-5.87-8.9-2.21-17.85-4.3-26.9-5.79-22.35-3.68-44.64-4.82-66.68,1.59-8.99,2.62-15.69,8.71-19.29,17.23-3.96,9.39-2.5,17.44,1.5,26.49,5.26,11.9,18.42,17.69,30.63,18.38V15.27c-17.7,2.07-34.05,5.79-50.48,12.73-19.83,8.37-44.07,19.67-43.73,44.95.29,22.31,25.15,37.43,44.79,25.7,1.55-.92,3.05-1.7,4.7-2.42l-7.11,3c2.21-.81,4.37-1.37,6.7-1.73l-7.91,1.06c1.14-.14,2.29-.21,3.44-.2-5.01-18.49-10.02-36.98-15.02-55.47-14.38,9.38-29.37,19.18-40.55,32.39-12.28,14.51-21.28,31.48-31.01,47.73-8.01,13.37-3.43,33.27,10.68,40.73s32.18,3.6,40.73-10.68h0Z"/>
  <path class="cls-15" d="m301.36,115.15c15.57,0,30.49-13.69,29.77-29.77-.72-16.13-13.08-29.77-29.77-29.77-15.57,0-30.49,13.69-29.77,29.77s13.08,29.77,29.77,29.77h0Z"/>
  <path class="cls-15" d="m326.2,105.36c15.57,0,30.49-13.69,29.77-29.77-.72-16.13-13.08-29.77-29.77-29.77-15.57,0-30.49,13.69-29.77,29.77s13.08,29.77,29.77,29.77h0Z"/>
  <path class="cls-15" d="m354.79,94.45c15.57,0,30.49-13.69,29.77-29.77-.72-16.13-13.08-29.77-29.77-29.77-15.57,0-30.49,13.69-29.77,29.77.72,16.13,13.08,29.77,29.77,29.77h0Z"/>
  <path class="cls-15" d="m255.46,128.69c15.57,0,30.49-13.69,29.77-29.77s-13.08-29.77-29.77-29.77c-15.57,0-30.49,13.69-29.77,29.77s13.08,29.77,29.77,29.77h0Z"/>
  <path class="cls-15" d="m236.64,140.36c15.57,0,30.49-13.69,29.77-29.77s-13.08-29.77-29.77-29.77c-15.57,0-30.49,13.69-29.77,29.77s13.08,29.77,29.77,29.77h0Z"/>
  <path class="cls-15" d="m270.13,122.67c15.57,0,30.49-13.69,29.77-29.77s-13.08-29.77-29.77-29.77c-15.57,0-30.49,13.69-29.77,29.77s13.08,29.77,29.77,29.77h0Z"/>
  <path class="cls-15" d="m208.8,144.87c15.57,0,30.49-13.69,29.77-29.77s-13.08-29.77-29.77-29.77c-15.57,0-30.49,13.69-29.77,29.77s13.08,29.77,29.77,29.77h0Z"/>
  <path class="cls-15" d="m257.91,132.62c15.32,0,15.35-23.81,0-23.81s-15.35,23.81,0,23.81h0Z"/>
  <path class="cls-15" d="m252.4,136.1c15.32,0,15.35-23.81,0-23.81s-15.35,23.81,0,23.81h0Z"/>
  <path class="cls-15" d="m240.17,141.82c15.32,0,15.35-23.81,0-23.81s-15.35,23.81,0,23.81h0Z"/>
  <path class="cls-15" d="m240.17,142.45c15.32,0,15.35-23.81,0-23.81s-15.35,23.81,0,23.81h0Z"/>
  <path class="cls-15" d="m298.75,116.44c15.32,0,15.35-23.81,0-23.81s-15.35,23.81,0,23.81h0Z"/>
  <path class="cls-15" d="m320.49,109.36c15.32,0,15.35-23.81,0-23.81s-15.35,23.81,0,23.81h0Z"/>
  <path class="cls-15" d="m347.96,100.05c15.32,0,15.35-23.81,0-23.81s-15.35,23.81,0,23.81h0Z"/>
  <path class="cls-15" d="m352.12,97.92c15.32,0,15.35-23.81,0-23.81s-15.35,23.81,0,23.81h0Z"/>
  <path class="cls-15" d="m365.44,91.96c3.85.43,7.11-1.42,10.78-2l-3.17.43c.98-.12,1.96-.2,2.94-.27,6.2-.44,12.21-5.16,11.91-11.91-.27-6.07-5.25-12.38-11.91-11.91-2.51.18-5.1.38-7.55.96-1.62.39-3.13,1.1-4.79,1.36l3.17-.43c-.46.05-.92.04-1.38-.05-2.83-.32-6.49,1.56-8.42,3.49-2.07,2.07-3.62,5.45-3.49,8.42s1.15,6.27,3.49,8.42c2.47,2.27,5.1,3.12,8.42,3.49h0Z"/>
  <path class="cls-15" d="m440.12,58.55c-3.29-1.48-6.5-3.12-9.58-4.99-2.72-1.66-5.77-3.8-7.48-5.2-4.97-4.07-11.97-4.86-16.84,0-4.2,4.2-5,12.74,0,16.84,6.77,5.55,13.88,10.32,21.88,13.92,5.86,2.64,12.8,1.69,16.29-4.27,2.98-5.09,1.62-13.64-4.27-16.29h0Z"/>
  <path class="cls-15" d="m404.36,79.18c.12-.04,3.75-.82,1.87-.56,1.5-.21,3.03-.19,4.53-.34.89-.09,5.7-.61,4.84-.63-2.13-.05,1.35.42,1.79.55,5.98,1.74,13.23-2.11,14.65-8.32s-1.91-12.78-8.32-14.65c-2.29-.67-4.66-1.16-7.05-1.33-.91-.06-1.76,0-2.66.1l-3.17.43c.77-.05.74-.04-.09.03-4.27.42-8.6.49-12.74,1.75-6.15,1.87-10.05,8.33-8.32,14.65s8.47,10.19,14.65,8.32h0Z"/>
  <path class="cls-15" d="m439.52,82.49c.94-.02,1.89-.15,2.81-.35.36-.09.71-.18,1.07-.27.87-.14.71-.21-.49-.2l-1.97-1.15c-1.09-1.07.35.52.57.74.5.5.99.78,1.58,1.07s1.2.49,1.85.6l1.19.16c.78.1.66.03-.35-.21,2.2.98,4.8.64,6.11-1.6,1.12-1.91.61-5.12-1.6-6.11-.65-.29-1.29-.59-1.98-.75l-1.19-.16c-.54-.08-.66-.08-.35-.02.03.11,1.51.82,1.38,1.06.18-.33-1.69-1.73-1.79-1.79-1.3-.76-2.83-.69-4.25-.46-.95.15-1.91.51-2.57.52-5.74.09-5.76,9.02,0,8.93h0Z"/>
  <path class="cls-15" d="m166.84,375.69c.71.32.75.57,1.26,1.23.72.94,1.49,1.65,2.45,2.35,1.86,1.36,4.51-.48,4.48-2.57s.22-4.05.34-6.06c.1-1.61-1.44-2.98-2.98-2.98-1.7,0-2.87,1.37-2.98,2.98-.13,2.01-.37,4.05-.34,6.06l4.48-2.57c-.76-.55-.92-1.04-1.51-1.78s-1.32-1.4-2.19-1.8c-1.47-.66-3.2-.42-4.07,1.07-.74,1.27-.41,3.41,1.07,4.07h0Z"/>
  <path class="cls-15" d="m468.62,87.72c-1.92,0-1.92,2.98,0,2.98s1.92-2.98,0-2.98Z"/>
  <path class="cls-16" d="m470.61,90.97c-.04-.88-.66-1.4-1.49-1.49-.68-.07-1.35-.15-2.03-.22-.78-.08-1.52.74-1.49,1.49.04.79.54,1.27,1.25,1.43.18.52.63.93,1.34.93.59,0,.99-.28,1.22-.67.66-.12,1.22-.83,1.2-1.48Z"/>
  <path class="cls-6" d="m428.18,45.72c2.07-.44,4.01,1.2,9.98,6.64,3.52,3.2,5.28,4.81,5.7,5.22,8.58,8.61,12.88,12.92,16.27,16.73,8.59,9.67,12.89,14.5,12.33,15.19-2.19,2.71-51.79-30.25-47.67-40.63.36-.9,1.57-2.76,3.39-3.15Z"/>
  <path class="cls-6" d="m315.61,23.15c-3.41-8.22-13.38-15.25-21.32-18.4-13.06-5.19-26.44-2.19-44.35,1.81-13.55,3.03-23.52,6.79-26.85,8.07-32.23,12.45-54.31,30.01-61.13,35.64-26.31,21.76-40.75,44.1-44.72,50.46-16.73,26.82-22.75,50.57-26.16,64.05,0,0-5.04,19.92-6.48,41.58-.35,5.24-.64,9.92-.18,16.23.22,3.07.35,2.7,2.45,18.86.28,2.18.72,5.57,1.36,10.25,1.43,10.44,1.34,10.73,1.63,10.97,5.77,4.77,67.09-61.04,91.19-86.14,86.1-89.66,145.66-126.64,134.55-153.4Z"/>
  <path class="cls-6" d="m124.22,338.91c-11.54-16.38-17.98-29.96-19.65-33.56-1.12-2.42-5.19-11.33-9.26-23.53-2.98-8.9-4.54-13.57-5.44-19.13-2.35-14.46-.2-34.19,5.12-36.11,7.27-2.63,27.84,25.32,80.18,136.19-.12,7.24-.43,13.26-.73,17.8-.23,3.42-.49,6.7-2.07,7.19-1.16.37-2.38-.98-5.49-3.66-4.1-3.54-4.71-3.56-7.19-5.73-19.89-17.37-35.45-39.46-35.45-39.46Z"/>
  <path class="cls-5" d="m180.26,374.28c-.98.04-.23,4.27-3.11,10.23-1.08,2.23-2.27,3.89-1.59,5.58.41,1.01,1.2,1.31,3.37,2.54,4.31,2.44,3.31,2.45,8.43,5.33,2.32,1.31,2.57,1.33,5.06,2.67,8.4,4.52,10.14,6.73,11.02,6.09,1.56-1.13-.9-10.19-6.98-12.65-3.24-1.31-4.62.41-7.41-.68-7.52-2.94-6.87-19.18-8.78-19.11Z"/>
  <path class="cls-6" d="m172.48,387.3c-.04,1.24,1.24,2.11,1.68,1.71.51-.46.33-2.96-.36-3.28-.48-.22-1.29.6-1.32,1.57Z"/>
  <polygon class="cls-4" points="175.39 186.54 179.92 188.42 346.15 136.03 435.9 132.27 500.12 142.77 498.68 139.45 437.23 127.96 343.83 131.72 175.39 186.54"/>
  <polyline class="cls-9" points="185.97 187.94 346.83 137.51 435.17 133.7 500.55 144.53"/>
  <polyline class="cls-2" points="439.94 377.23 434.29 138.09 348.29 140.66 345.15 376.49 344.31 425.55"/>
  <polyline class="cls-2" points="348.49 140.99 184.58 193.96 174.76 383.67 174.62 390.19"/>
  <path class="cls-2" d="m185.67,189.18l162.23-50.82,87.22-3.99,31.94,5.14c11.6,2.09,23.19,4.18,34.79,6.28"/>
  <polyline class="cls-2" points="434.54 137.76 469.2 142.66 502.92 148.44"/>
  <path class="cls-11" d="m500.97,143.64c-11.34-1.9-22.68-3.8-34.02-5.7-10.39-1.66-20.79-3.31-31.18-4.97l-89.27,3.74-166.39,52.46c-2.01-.89-4.01-1.78-6.02-2.67,8.8-4.17,17.67-8.52,26.59-13.07,34.28-17.47,64.52-35.36,91.13-52.94l121.42-42.16,51.79,10.18c2.73.56,5.45,1.12,8.18,1.69"/>
  <path class="cls-2" d="m174.09,186.51c57.05-18.7,114.09-37.39,171.14-56.09,12.5-8.29,25.42-17.47,38.46-27.58,10.8-8.38,20.62-16.58,29.54-24.5,2.43,6.65,5.36,13.66,8.89,20.96,4.93,10.19,10.34,19.52,15.86,27.95l28.73,5.23c10.88,1.98,21.76,3.95,32.64,5.93"/>
  <polyline class="cls-2" points="180.1 189.24 186.46 188.9 185.56 193.37"/>
  <line class="cls-2" x1="344.19" y1="130.78" x2="437.97" y2="127.26"/>
  <polyline class="cls-2" points="241.63 151.32 241.44 145.28 238.89 146.51 238.6 152.9"/>
  <polyline class="cls-2" points="241.51 145.28 291.51 115.06 296.35 118.51 296.87 118.78"/>
  <polygon class="cls-7" points="189.66 199.26 200.83 196.13 199.82 223.09 187.75 226.09 189.66 199.26"/>
  <polygon class="cls-7" points="218.07 191.77 228.28 188.12 227.61 216.51 216.57 219.64 218.07 191.77"/>
  <polygon class="cls-7" points="244.75 183.32 258.66 179.24 257.92 209.03 243.76 212.63 244.75 183.32"/>
  <polygon class="cls-7" points="276.59 173.99 292.17 169.47 291.8 200.54 275.6 204.58 276.59 173.99"/>
  <polygon class="cls-7" points="312.32 163.54 329.88 158.42 329.57 191.37 311.76 195.65 312.32 163.54"/>
  <polygon class="cls-7" points="185.1 284.12 186.68 256.57 198.13 254.49 197.08 282.5 185.1 284.12"/>
  <polygon class="cls-7" points="213.32 251.65 225.95 249.19 225.01 278.37 212.39 280.23 213.32 251.65"/>
  <polygon class="cls-7" points="242.66 246.01 256.63 243.44 255.87 274.1 241.38 276.44 242.66 246.01"/>
  <polygon class="cls-7" points="275.1 239.73 291.05 236.78 290.52 269.36 274.1 271.75 275.1 239.73"/>
  <polygon class="cls-7" points="311.26 233.09 329.05 229.51 328.9 264.22 310.21 266.69 311.26 233.09"/>
  <polygon class="cls-7" points="374.25 150.82 409.18 149.57 409.96 184 374.12 185.26 374.25 150.82"/>
  <polygon class="cls-7" points="374.12 224.47 410.48 223.72 411 259.91 373.99 260.42 374.12 224.47"/>
  <polygon class="cls-7" points="184.28 314.58 182.86 342.72 194.7 342.36 195.93 314.14 195.93 313.62 184.28 314.58"/>
  <polygon class="cls-7" points="209.49 341.92 223.91 341.56 224.77 311.27 211.15 311.79 209.49 341.92"/>
  <polygon class="cls-7" points="239.5 340.92 240.55 309.71 255.03 308.59 254.04 340.58 239.5 340.92"/>
  <polygon class="cls-7" points="273.08 339.66 274.01 306.86 289.85 305.62 289.17 339.3 273.08 339.66"/>
  <polygon class="cls-7" points="309.51 338.43 310.43 303.66 328.49 302.19 328.3 337.87 309.51 338.43"/>
  <polygon class="cls-7" points="374.32 336.57 374.65 299.74 411.35 299.31 411.87 337.11 374.36 337.19 374.32 336.57"/>
  <polygon class="cls-7" points="184.92 387.3 195.21 388.12 196.44 368.37 185.74 368.37 184.92 387.3"/>
  <polygon class="cls-7" points="210.85 370.01 223.6 370.43 223.6 388.95 211.26 388.12 210.85 370.01"/>
  <polygon class="cls-7" points="241.71 370.01 254.47 370.01 254.88 390.18 240.89 389.77 241.71 370.01"/>
  <polygon class="cls-7" points="274.64 370.01 289.04 370.43 289.04 391.83 273.82 391.42 274.64 370.01"/>
  <polygon class="cls-7" points="309.21 369.6 329.38 370.43 328.97 395.53 309.21 394.71 309.21 369.6"/>
  <polygon class="cls-3" points="375.78 399.36 376.19 415.36 410.27 399.16 375.78 399.36"/>
  <rect class="cls-14" x="375.27" y="356.42" width="36.32" height="42.41"/>
  <circle class="cls-8" cx="299.01" cy="215.24" r="214.74"/>
  <text/>
</svg>